<svg width="20" height="17" viewBox="0 0 20 17" fill="none" xmlns="http://www.w3.org/2000/svg">
<path d="M18.3324 13.8724C18.3324 14.2944 18.1648 14.6991 17.8664 14.9974C17.568 15.2958 17.1633 15.4634 16.7414 15.4634H2.42661C2.00464 15.4634 1.59995 15.2958 1.30158 14.9974C1.0032 14.6991 0.835571 14.2944 0.835571 13.8724V5.12353C0.835571 4.70156 1.0032 4.29687 1.30158 3.9985C1.59995 3.70012 2.00464 3.53249 2.42661 3.53249H5.60777L7.19789 1.14685H11.9701L13.5611 3.53249H16.7423C17.1643 3.53249 17.5689 3.70012 17.8673 3.9985C18.1657 4.29687 18.3333 4.70156 18.3333 5.12353L18.3324 13.8724Z" fill="#FBD512" stroke="black" stroke-width="1.5" stroke-linecap="round" stroke-linejoin="round"/>
<path d="M12.766 9.09778C12.766 9.72696 12.5794 10.342 12.2299 10.8651C11.8803 11.3883 11.3835 11.796 10.8022 12.0368C10.2209 12.2776 9.58132 12.3406 8.96423 12.2178C8.34715 12.0951 7.78032 11.7921 7.33543 11.3472C6.89053 10.9023 6.58756 10.3355 6.46481 9.7184C6.34207 9.10131 6.40507 8.46169 6.64584 7.88041C6.88661 7.29913 7.29435 6.8023 7.81749 6.45275C8.34063 6.1032 8.95567 5.91663 9.58485 5.91663C10.4285 5.91663 11.2377 6.25178 11.8343 6.84837C12.4308 7.44495 12.766 8.25409 12.766 9.09778Z" fill="#FBD512" stroke="black" stroke-width="1.5" stroke-linecap="round" stroke-linejoin="round"/>
</svg>
